<mxfile host="app.diagrams.net" modified="2024-02-01T18:00:37.118Z" agent="Mozilla/5.0 (Windows NT 10.0; Win64; x64) AppleWebKit/537.36 (KHTML, like Gecko) Chrome/121.0.0.0 Safari/537.36" etag="poEdIuTXY8ra2ExTJ3xM" version="23.0.2" type="device">
  <diagram name="Page-1" id="e7e014a7-5840-1c2e-5031-d8a46d1fe8dd">
    <mxGraphModel dx="3077" dy="1630" grid="1" gridSize="10" guides="1" tooltips="1" connect="1" arrows="1" fold="1" page="1" pageScale="1" pageWidth="1169" pageHeight="826" background="none" math="0" shadow="0">
      <root>
        <mxCell id="0" />
        <mxCell id="1" parent="0" />
        <mxCell id="CJWO5uIFAEIvbtH7xIn5-64" style="edgeStyle=orthogonalEdgeStyle;rounded=0;orthogonalLoop=1;jettySize=auto;html=1;exitX=0.5;exitY=0;exitDx=0;exitDy=0;entryX=0.5;entryY=1;entryDx=0;entryDy=0;" edge="1" parent="1" source="CJWO5uIFAEIvbtH7xIn5-1" target="CJWO5uIFAEIvbtH7xIn5-7">
          <mxGeometry relative="1" as="geometry" />
        </mxCell>
        <mxCell id="CJWO5uIFAEIvbtH7xIn5-1" value="Assistant" style="swimlane;fontStyle=0;align=center;verticalAlign=top;childLayout=stackLayout;horizontal=1;startSize=26;horizontalStack=0;resizeParent=1;resizeLast=0;collapsible=1;marginBottom=0;rounded=0;shadow=0;strokeWidth=1;" vertex="1" parent="1">
          <mxGeometry x="-1120" y="-322" width="180" height="460" as="geometry">
            <mxRectangle x="-1120" y="-32" width="160" height="26" as="alternateBounds" />
          </mxGeometry>
        </mxCell>
        <mxCell id="CJWO5uIFAEIvbtH7xIn5-2" value="+ running&#xa;+ contact_book&#xa;+ notes_book&#xa;+ validated_input()&#xa;+ save()&#xa;+ load()&#xa;+ help()&#xa;+ list_command()&#xa;+ about()&#xa;+ exit_command()&#xa;+ add_command()&#xa;+ remove_command()&#xa;+ add_phone_command()&#xa;+ rm_phone_command()&#xa;+ edit_phone_command()&#xa;+ edit_name_command()&#xa;+ edit_address_command()&#xa;+ edit_email_command()&#xa;+ edit_birthday_command()&#xa;+ search_command()&#xa;+ show_command()&#xa;+ show_notes_command()&#xa;+ add_note_command()&#xa;+ add_tag_command()&#xa;+ rm_tag_command()&#xa;+ edit_tag_command()&#xa;+ rm_note_command()&#xa;+ search_note_command()&#xa;+ search_note_tag_command()&#xa;+ sort_command()&#xa;+ birthday_command()&#xa;+ main_loop()" style="text;align=left;verticalAlign=top;spacingLeft=4;spacingRight=4;overflow=hidden;rotatable=0;points=[[0,0.5],[1,0.5]];portConstraint=eastwest;rounded=0;shadow=0;html=0;" vertex="1" parent="CJWO5uIFAEIvbtH7xIn5-1">
          <mxGeometry y="26" width="180" height="434" as="geometry" />
        </mxCell>
        <mxCell id="CJWO5uIFAEIvbtH7xIn5-3" value="ContactBook" style="swimlane;fontStyle=0;align=center;verticalAlign=top;childLayout=stackLayout;horizontal=1;startSize=26;horizontalStack=0;resizeParent=1;resizeLast=0;collapsible=1;marginBottom=0;rounded=0;shadow=0;strokeWidth=1;" vertex="1" parent="1">
          <mxGeometry x="-820" y="-400" width="127" height="196" as="geometry">
            <mxRectangle x="550" y="140" width="160" height="26" as="alternateBounds" />
          </mxGeometry>
        </mxCell>
        <mxCell id="CJWO5uIFAEIvbtH7xIn5-4" value="+&amp;nbsp;add_contact()&lt;br&gt;+&amp;nbsp;edit_name()&lt;br&gt;+&amp;nbsp;edit_phone()&lt;br&gt;+&amp;nbsp;edit_address()&lt;br&gt;+ edit_email()&lt;br&gt;+&amp;nbsp;edit_birthday()&lt;br&gt;+&amp;nbsp;delete_contact()&lt;br&gt;+&amp;nbsp;get_contact()&lt;br&gt;+&amp;nbsp;find()&lt;br&gt;+&amp;nbsp;days_to_birthday()&lt;br&gt;+&amp;nbsp;names_tuple()" style="text;html=1;align=left;verticalAlign=middle;resizable=0;points=[];autosize=1;strokeColor=none;fillColor=none;" vertex="1" parent="CJWO5uIFAEIvbtH7xIn5-3">
          <mxGeometry y="26" width="127" height="170" as="geometry" />
        </mxCell>
        <mxCell id="CJWO5uIFAEIvbtH7xIn5-73" style="edgeStyle=orthogonalEdgeStyle;rounded=0;orthogonalLoop=1;jettySize=auto;html=1;exitX=0.5;exitY=1;exitDx=0;exitDy=0;entryX=0.5;entryY=0;entryDx=0;entryDy=0;" edge="1" parent="1" source="CJWO5uIFAEIvbtH7xIn5-5" target="CJWO5uIFAEIvbtH7xIn5-57">
          <mxGeometry relative="1" as="geometry" />
        </mxCell>
        <mxCell id="CJWO5uIFAEIvbtH7xIn5-5" value="NoteBook" style="swimlane;fontStyle=0;align=center;verticalAlign=top;childLayout=stackLayout;horizontal=1;startSize=26;horizontalStack=0;resizeParent=1;resizeLast=0;collapsible=1;marginBottom=0;rounded=0;shadow=0;strokeWidth=1;" vertex="1" parent="1">
          <mxGeometry x="-820" y="-162" width="120" height="140" as="geometry">
            <mxRectangle x="-820" y="128" width="160" height="26" as="alternateBounds" />
          </mxGeometry>
        </mxCell>
        <mxCell id="CJWO5uIFAEIvbtH7xIn5-6" value="+ add_record()&lt;br&gt;+ find()&lt;br&gt;&lt;font face=&quot;Helvetica&quot;&gt;+ delete()&lt;br&gt;&lt;/font&gt;+ get_note()&lt;br&gt;+ iterator()&lt;br&gt;&lt;span style=&quot;background-color: rgb(255, 255, 255);&quot;&gt;+ notes_tags_set()&lt;br&gt;+ titles_tuple()&lt;br&gt;&lt;/span&gt;" style="text;html=1;align=left;verticalAlign=middle;resizable=0;points=[];autosize=1;strokeColor=none;fillColor=none;" vertex="1" parent="CJWO5uIFAEIvbtH7xIn5-5">
          <mxGeometry y="26" width="120" height="110" as="geometry" />
        </mxCell>
        <mxCell id="CJWO5uIFAEIvbtH7xIn5-7" value="FileSorter" style="swimlane;fontStyle=0;align=center;verticalAlign=top;childLayout=stackLayout;horizontal=1;startSize=26;horizontalStack=0;resizeParent=1;resizeLast=0;collapsible=1;marginBottom=0;rounded=0;shadow=0;strokeWidth=1;" vertex="1" parent="1">
          <mxGeometry x="-1090" y="-520" width="120" height="120" as="geometry">
            <mxRectangle x="550" y="140" width="160" height="26" as="alternateBounds" />
          </mxGeometry>
        </mxCell>
        <mxCell id="CJWO5uIFAEIvbtH7xIn5-8" value="+ init_folder()&#xa;+ main()&#xa;+ find_file()&#xa;+ normalize()" style="text;align=left;verticalAlign=top;spacingLeft=4;spacingRight=4;overflow=hidden;rotatable=0;points=[[0,0.5],[1,0.5]];portConstraint=eastwest;rounded=0;shadow=0;html=0;" vertex="1" parent="CJWO5uIFAEIvbtH7xIn5-7">
          <mxGeometry y="26" width="120" height="84" as="geometry" />
        </mxCell>
        <mxCell id="CJWO5uIFAEIvbtH7xIn5-13" value="Contact" style="swimlane;fontStyle=0;align=center;verticalAlign=top;childLayout=stackLayout;horizontal=1;startSize=26;horizontalStack=0;resizeParent=1;resizeLast=0;collapsible=1;marginBottom=0;rounded=0;shadow=0;strokeWidth=1;" vertex="1" parent="1">
          <mxGeometry x="-820" y="-672" width="130" height="190" as="geometry">
            <mxRectangle x="150" width="160" height="26" as="alternateBounds" />
          </mxGeometry>
        </mxCell>
        <mxCell id="CJWO5uIFAEIvbtH7xIn5-14" value="- _name&#xa;- _phones&#xa;- _address&#xa;- _email&#xa;- _birthday&#xa;+ add_phone()&#xa;+ edit_phone()&#xa;+ remove_phone()&#xa;+ phone_tuple()" style="text;align=left;verticalAlign=top;spacingLeft=4;spacingRight=4;overflow=hidden;rotatable=0;points=[[0,0.5],[1,0.5]];portConstraint=eastwest;rounded=0;shadow=0;html=0;" vertex="1" parent="CJWO5uIFAEIvbtH7xIn5-13">
          <mxGeometry y="26" width="130" height="164" as="geometry" />
        </mxCell>
        <mxCell id="CJWO5uIFAEIvbtH7xIn5-17" value="Address" style="swimlane;fontStyle=0;align=center;verticalAlign=top;childLayout=stackLayout;horizontal=1;startSize=26;horizontalStack=0;resizeParent=1;resizeLast=0;collapsible=1;marginBottom=0;rounded=0;shadow=0;strokeWidth=1;" vertex="1" parent="1">
          <mxGeometry x="-510" y="-542" width="160" height="60" as="geometry">
            <mxRectangle x="550" y="140" width="160" height="26" as="alternateBounds" />
          </mxGeometry>
        </mxCell>
        <mxCell id="CJWO5uIFAEIvbtH7xIn5-88" style="edgeStyle=orthogonalEdgeStyle;rounded=0;orthogonalLoop=1;jettySize=auto;html=1;exitX=1;exitY=0.5;exitDx=0;exitDy=0;" edge="1" parent="CJWO5uIFAEIvbtH7xIn5-17" source="CJWO5uIFAEIvbtH7xIn5-18">
          <mxGeometry relative="1" as="geometry">
            <mxPoint x="360" y="222" as="targetPoint" />
          </mxGeometry>
        </mxCell>
        <mxCell id="CJWO5uIFAEIvbtH7xIn5-18" value="+ is_valid()" style="text;align=left;verticalAlign=top;spacingLeft=4;spacingRight=4;overflow=hidden;rotatable=0;points=[[0,0.5],[1,0.5]];portConstraint=eastwest;rounded=0;shadow=0;html=0;" vertex="1" parent="CJWO5uIFAEIvbtH7xIn5-17">
          <mxGeometry y="26" width="160" height="26" as="geometry" />
        </mxCell>
        <mxCell id="CJWO5uIFAEIvbtH7xIn5-19" value="Date" style="swimlane;fontStyle=0;align=center;verticalAlign=top;childLayout=stackLayout;horizontal=1;startSize=26;horizontalStack=0;resizeParent=1;resizeLast=0;collapsible=1;marginBottom=0;rounded=0;shadow=0;strokeWidth=1;" vertex="1" parent="1">
          <mxGeometry x="-510" y="-450" width="160" height="60" as="geometry">
            <mxRectangle x="550" y="140" width="160" height="26" as="alternateBounds" />
          </mxGeometry>
        </mxCell>
        <mxCell id="CJWO5uIFAEIvbtH7xIn5-20" value="+ is_valid()" style="text;align=left;verticalAlign=top;spacingLeft=4;spacingRight=4;overflow=hidden;rotatable=0;points=[[0,0.5],[1,0.5]];portConstraint=eastwest;rounded=0;shadow=0;html=0;" vertex="1" parent="CJWO5uIFAEIvbtH7xIn5-19">
          <mxGeometry y="26" width="160" height="26" as="geometry" />
        </mxCell>
        <mxCell id="CJWO5uIFAEIvbtH7xIn5-21" value="EmailAddress" style="swimlane;fontStyle=0;align=center;verticalAlign=top;childLayout=stackLayout;horizontal=1;startSize=26;horizontalStack=0;resizeParent=1;resizeLast=0;collapsible=1;marginBottom=0;rounded=0;shadow=0;strokeWidth=1;" vertex="1" parent="1">
          <mxGeometry x="-510" y="-810" width="160" height="60" as="geometry">
            <mxRectangle x="550" y="140" width="160" height="26" as="alternateBounds" />
          </mxGeometry>
        </mxCell>
        <mxCell id="CJWO5uIFAEIvbtH7xIn5-94" style="edgeStyle=orthogonalEdgeStyle;rounded=0;orthogonalLoop=1;jettySize=auto;html=1;exitX=1;exitY=0.5;exitDx=0;exitDy=0;" edge="1" parent="CJWO5uIFAEIvbtH7xIn5-21" source="CJWO5uIFAEIvbtH7xIn5-22">
          <mxGeometry relative="1" as="geometry">
            <mxPoint x="360" y="490" as="targetPoint" />
          </mxGeometry>
        </mxCell>
        <mxCell id="CJWO5uIFAEIvbtH7xIn5-22" value="+ is_valid()" style="text;align=left;verticalAlign=top;spacingLeft=4;spacingRight=4;overflow=hidden;rotatable=0;points=[[0,0.5],[1,0.5]];portConstraint=eastwest;rounded=0;shadow=0;html=0;" vertex="1" parent="CJWO5uIFAEIvbtH7xIn5-21">
          <mxGeometry y="26" width="160" height="26" as="geometry" />
        </mxCell>
        <mxCell id="CJWO5uIFAEIvbtH7xIn5-23" value="Name" style="swimlane;fontStyle=0;align=center;verticalAlign=top;childLayout=stackLayout;horizontal=1;startSize=26;horizontalStack=0;resizeParent=1;resizeLast=0;collapsible=1;marginBottom=0;rounded=0;shadow=0;strokeWidth=1;" vertex="1" parent="1">
          <mxGeometry x="-510" y="-720" width="160" height="60" as="geometry">
            <mxRectangle x="550" y="140" width="160" height="26" as="alternateBounds" />
          </mxGeometry>
        </mxCell>
        <mxCell id="CJWO5uIFAEIvbtH7xIn5-93" style="edgeStyle=orthogonalEdgeStyle;rounded=0;orthogonalLoop=1;jettySize=auto;html=1;exitX=1;exitY=0.5;exitDx=0;exitDy=0;" edge="1" parent="CJWO5uIFAEIvbtH7xIn5-23" source="CJWO5uIFAEIvbtH7xIn5-24">
          <mxGeometry relative="1" as="geometry">
            <mxPoint x="360" y="400" as="targetPoint" />
          </mxGeometry>
        </mxCell>
        <mxCell id="CJWO5uIFAEIvbtH7xIn5-24" value="+ is_valid()" style="text;align=left;verticalAlign=top;spacingLeft=4;spacingRight=4;overflow=hidden;rotatable=0;points=[[0,0.5],[1,0.5]];portConstraint=eastwest;rounded=0;shadow=0;html=0;" vertex="1" parent="CJWO5uIFAEIvbtH7xIn5-23">
          <mxGeometry y="26" width="160" height="26" as="geometry" />
        </mxCell>
        <mxCell id="CJWO5uIFAEIvbtH7xIn5-25" value="Phone" style="swimlane;fontStyle=0;align=center;verticalAlign=top;childLayout=stackLayout;horizontal=1;startSize=26;horizontalStack=0;resizeParent=1;resizeLast=0;collapsible=1;marginBottom=0;rounded=0;shadow=0;strokeWidth=1;" vertex="1" parent="1">
          <mxGeometry x="-510" y="-630" width="160" height="60" as="geometry">
            <mxRectangle x="550" y="140" width="160" height="26" as="alternateBounds" />
          </mxGeometry>
        </mxCell>
        <mxCell id="CJWO5uIFAEIvbtH7xIn5-26" value="+ is_valid()" style="text;align=left;verticalAlign=top;spacingLeft=4;spacingRight=4;overflow=hidden;rotatable=0;points=[[0,0.5],[1,0.5]];portConstraint=eastwest;rounded=0;shadow=0;html=0;" vertex="1" parent="CJWO5uIFAEIvbtH7xIn5-25">
          <mxGeometry y="26" width="160" height="26" as="geometry" />
        </mxCell>
        <mxCell id="CJWO5uIFAEIvbtH7xIn5-32" value="Field" style="swimlane;fontStyle=0;align=center;verticalAlign=top;childLayout=stackLayout;horizontal=1;startSize=26;horizontalStack=0;resizeParent=1;resizeLast=0;collapsible=1;marginBottom=0;rounded=0;shadow=0;strokeWidth=1;" vertex="1" parent="1">
          <mxGeometry x="-230" y="-320" width="160" height="90" as="geometry">
            <mxRectangle x="550" y="140" width="160" height="26" as="alternateBounds" />
          </mxGeometry>
        </mxCell>
        <mxCell id="CJWO5uIFAEIvbtH7xIn5-33" value="- _value" style="text;align=left;verticalAlign=top;spacingLeft=4;spacingRight=4;overflow=hidden;rotatable=0;points=[[0,0.5],[1,0.5]];portConstraint=eastwest;" vertex="1" parent="CJWO5uIFAEIvbtH7xIn5-32">
          <mxGeometry y="26" width="160" height="26" as="geometry" />
        </mxCell>
        <mxCell id="CJWO5uIFAEIvbtH7xIn5-34" value="+ is_valid()" style="text;align=left;verticalAlign=top;spacingLeft=4;spacingRight=4;overflow=hidden;rotatable=0;points=[[0,0.5],[1,0.5]];portConstraint=eastwest;rounded=0;shadow=0;html=0;" vertex="1" parent="CJWO5uIFAEIvbtH7xIn5-32">
          <mxGeometry y="52" width="160" height="26" as="geometry" />
        </mxCell>
        <mxCell id="CJWO5uIFAEIvbtH7xIn5-45" value="Tag" style="swimlane;fontStyle=0;align=center;verticalAlign=top;childLayout=stackLayout;horizontal=1;startSize=26;horizontalStack=0;resizeParent=1;resizeLast=0;collapsible=1;marginBottom=0;rounded=0;shadow=0;strokeWidth=1;" vertex="1" parent="1">
          <mxGeometry x="-520" y="50" width="160" height="60" as="geometry">
            <mxRectangle x="550" y="140" width="160" height="26" as="alternateBounds" />
          </mxGeometry>
        </mxCell>
        <mxCell id="CJWO5uIFAEIvbtH7xIn5-46" value="+ is_valid()" style="text;align=left;verticalAlign=top;spacingLeft=4;spacingRight=4;overflow=hidden;rotatable=0;points=[[0,0.5],[1,0.5]];portConstraint=eastwest;rounded=0;shadow=0;html=0;" vertex="1" parent="CJWO5uIFAEIvbtH7xIn5-45">
          <mxGeometry y="26" width="160" height="26" as="geometry" />
        </mxCell>
        <mxCell id="CJWO5uIFAEIvbtH7xIn5-47" value="Text" style="swimlane;fontStyle=0;align=center;verticalAlign=top;childLayout=stackLayout;horizontal=1;startSize=26;horizontalStack=0;resizeParent=1;resizeLast=0;collapsible=1;marginBottom=0;rounded=0;shadow=0;strokeWidth=1;" vertex="1" parent="1">
          <mxGeometry x="-520" y="-40" width="160" height="60" as="geometry">
            <mxRectangle x="550" y="140" width="160" height="26" as="alternateBounds" />
          </mxGeometry>
        </mxCell>
        <mxCell id="CJWO5uIFAEIvbtH7xIn5-48" value="+ is_valid()" style="text;align=left;verticalAlign=top;spacingLeft=4;spacingRight=4;overflow=hidden;rotatable=0;points=[[0,0.5],[1,0.5]];portConstraint=eastwest;rounded=0;shadow=0;html=0;" vertex="1" parent="CJWO5uIFAEIvbtH7xIn5-47">
          <mxGeometry y="26" width="160" height="26" as="geometry" />
        </mxCell>
        <mxCell id="CJWO5uIFAEIvbtH7xIn5-49" value="Title" style="swimlane;fontStyle=0;align=center;verticalAlign=top;childLayout=stackLayout;horizontal=1;startSize=26;horizontalStack=0;resizeParent=1;resizeLast=0;collapsible=1;marginBottom=0;rounded=0;shadow=0;strokeWidth=1;" vertex="1" parent="1">
          <mxGeometry x="-520" y="-140" width="160" height="60" as="geometry">
            <mxRectangle x="550" y="140" width="160" height="26" as="alternateBounds" />
          </mxGeometry>
        </mxCell>
        <mxCell id="CJWO5uIFAEIvbtH7xIn5-50" value="+ is_valid()" style="text;align=left;verticalAlign=top;spacingLeft=4;spacingRight=4;overflow=hidden;rotatable=0;points=[[0,0.5],[1,0.5]];portConstraint=eastwest;rounded=0;shadow=0;html=0;" vertex="1" parent="CJWO5uIFAEIvbtH7xIn5-49">
          <mxGeometry y="26" width="160" height="26" as="geometry" />
        </mxCell>
        <mxCell id="CJWO5uIFAEIvbtH7xIn5-57" value="Note" style="swimlane;fontStyle=0;align=center;verticalAlign=top;childLayout=stackLayout;horizontal=1;startSize=26;horizontalStack=0;resizeParent=1;resizeLast=0;collapsible=1;marginBottom=0;rounded=0;shadow=0;strokeWidth=1;" vertex="1" parent="1">
          <mxGeometry x="-820" y="80" width="130" height="160" as="geometry">
            <mxRectangle x="550" y="140" width="160" height="26" as="alternateBounds" />
          </mxGeometry>
        </mxCell>
        <mxCell id="CJWO5uIFAEIvbtH7xIn5-58" value="- _title&#xa;- _text&#xa;- _tags&#xa;- _creation_date&#xa;+ add_tag()&#xa;+ remove_tag()&#xa;+ find_tag()&#xa;+ change_tag()" style="text;align=left;verticalAlign=top;spacingLeft=4;spacingRight=4;overflow=hidden;rotatable=0;points=[[0,0.5],[1,0.5]];portConstraint=eastwest;rounded=0;shadow=0;html=0;" vertex="1" parent="CJWO5uIFAEIvbtH7xIn5-57">
          <mxGeometry y="26" width="130" height="134" as="geometry" />
        </mxCell>
        <mxCell id="CJWO5uIFAEIvbtH7xIn5-70" style="edgeStyle=orthogonalEdgeStyle;rounded=0;orthogonalLoop=1;jettySize=auto;html=1;exitX=0.75;exitY=0;exitDx=0;exitDy=0;entryX=0.443;entryY=0.996;entryDx=0;entryDy=0;entryPerimeter=0;" edge="1" parent="1" source="CJWO5uIFAEIvbtH7xIn5-3" target="CJWO5uIFAEIvbtH7xIn5-14">
          <mxGeometry relative="1" as="geometry" />
        </mxCell>
        <mxCell id="CJWO5uIFAEIvbtH7xIn5-71" style="edgeStyle=orthogonalEdgeStyle;rounded=0;orthogonalLoop=1;jettySize=auto;html=1;exitX=1;exitY=0.5;exitDx=0;exitDy=0;entryX=0;entryY=0.516;entryDx=0;entryDy=0;entryPerimeter=0;" edge="1" parent="1" source="CJWO5uIFAEIvbtH7xIn5-2" target="CJWO5uIFAEIvbtH7xIn5-6">
          <mxGeometry relative="1" as="geometry" />
        </mxCell>
        <mxCell id="CJWO5uIFAEIvbtH7xIn5-75" style="edgeStyle=orthogonalEdgeStyle;rounded=0;orthogonalLoop=1;jettySize=auto;html=1;exitX=1;exitY=0.5;exitDx=0;exitDy=0;entryX=0;entryY=0.5;entryDx=0;entryDy=0;" edge="1" parent="1" source="CJWO5uIFAEIvbtH7xIn5-58" target="CJWO5uIFAEIvbtH7xIn5-50">
          <mxGeometry relative="1" as="geometry" />
        </mxCell>
        <mxCell id="CJWO5uIFAEIvbtH7xIn5-76" style="edgeStyle=orthogonalEdgeStyle;rounded=0;orthogonalLoop=1;jettySize=auto;html=1;exitX=1;exitY=0.5;exitDx=0;exitDy=0;entryX=0;entryY=0.5;entryDx=0;entryDy=0;" edge="1" parent="1" source="CJWO5uIFAEIvbtH7xIn5-58" target="CJWO5uIFAEIvbtH7xIn5-48">
          <mxGeometry relative="1" as="geometry" />
        </mxCell>
        <mxCell id="CJWO5uIFAEIvbtH7xIn5-77" style="edgeStyle=orthogonalEdgeStyle;rounded=0;orthogonalLoop=1;jettySize=auto;html=1;exitX=1;exitY=0.5;exitDx=0;exitDy=0;entryX=0;entryY=0.5;entryDx=0;entryDy=0;" edge="1" parent="1" source="CJWO5uIFAEIvbtH7xIn5-58" target="CJWO5uIFAEIvbtH7xIn5-46">
          <mxGeometry relative="1" as="geometry" />
        </mxCell>
        <mxCell id="CJWO5uIFAEIvbtH7xIn5-78" style="edgeStyle=orthogonalEdgeStyle;rounded=0;orthogonalLoop=1;jettySize=auto;html=1;exitX=1;exitY=0.5;exitDx=0;exitDy=0;entryX=0.5;entryY=1;entryDx=0;entryDy=0;" edge="1" parent="1" source="CJWO5uIFAEIvbtH7xIn5-50" target="CJWO5uIFAEIvbtH7xIn5-32">
          <mxGeometry relative="1" as="geometry" />
        </mxCell>
        <mxCell id="CJWO5uIFAEIvbtH7xIn5-79" style="edgeStyle=orthogonalEdgeStyle;rounded=0;orthogonalLoop=1;jettySize=auto;html=1;exitX=1;exitY=0.5;exitDx=0;exitDy=0;entryX=0.5;entryY=1;entryDx=0;entryDy=0;" edge="1" parent="1" source="CJWO5uIFAEIvbtH7xIn5-48" target="CJWO5uIFAEIvbtH7xIn5-32">
          <mxGeometry relative="1" as="geometry" />
        </mxCell>
        <mxCell id="CJWO5uIFAEIvbtH7xIn5-80" style="edgeStyle=orthogonalEdgeStyle;rounded=0;orthogonalLoop=1;jettySize=auto;html=1;exitX=1;exitY=0.5;exitDx=0;exitDy=0;entryX=0.5;entryY=1;entryDx=0;entryDy=0;" edge="1" parent="1" source="CJWO5uIFAEIvbtH7xIn5-46" target="CJWO5uIFAEIvbtH7xIn5-32">
          <mxGeometry relative="1" as="geometry" />
        </mxCell>
        <mxCell id="CJWO5uIFAEIvbtH7xIn5-81" style="edgeStyle=orthogonalEdgeStyle;rounded=0;orthogonalLoop=1;jettySize=auto;html=1;exitX=1;exitY=0.5;exitDx=0;exitDy=0;entryX=0.002;entryY=0.074;entryDx=0;entryDy=0;entryPerimeter=0;" edge="1" parent="1" source="CJWO5uIFAEIvbtH7xIn5-14" target="CJWO5uIFAEIvbtH7xIn5-22">
          <mxGeometry relative="1" as="geometry" />
        </mxCell>
        <mxCell id="CJWO5uIFAEIvbtH7xIn5-82" style="edgeStyle=orthogonalEdgeStyle;rounded=0;orthogonalLoop=1;jettySize=auto;html=1;exitX=1;exitY=0.5;exitDx=0;exitDy=0;entryX=0.018;entryY=0.161;entryDx=0;entryDy=0;entryPerimeter=0;" edge="1" parent="1" source="CJWO5uIFAEIvbtH7xIn5-14" target="CJWO5uIFAEIvbtH7xIn5-24">
          <mxGeometry relative="1" as="geometry" />
        </mxCell>
        <mxCell id="CJWO5uIFAEIvbtH7xIn5-83" style="edgeStyle=orthogonalEdgeStyle;rounded=0;orthogonalLoop=1;jettySize=auto;html=1;exitX=1;exitY=0.5;exitDx=0;exitDy=0;entryX=-0.019;entryY=0.12;entryDx=0;entryDy=0;entryPerimeter=0;" edge="1" parent="1" source="CJWO5uIFAEIvbtH7xIn5-14" target="CJWO5uIFAEIvbtH7xIn5-26">
          <mxGeometry relative="1" as="geometry" />
        </mxCell>
        <mxCell id="CJWO5uIFAEIvbtH7xIn5-84" style="edgeStyle=orthogonalEdgeStyle;rounded=0;orthogonalLoop=1;jettySize=auto;html=1;exitX=1;exitY=0.5;exitDx=0;exitDy=0;entryX=0;entryY=0.5;entryDx=0;entryDy=0;" edge="1" parent="1" source="CJWO5uIFAEIvbtH7xIn5-14" target="CJWO5uIFAEIvbtH7xIn5-18">
          <mxGeometry relative="1" as="geometry" />
        </mxCell>
        <mxCell id="CJWO5uIFAEIvbtH7xIn5-85" style="edgeStyle=orthogonalEdgeStyle;rounded=0;orthogonalLoop=1;jettySize=auto;html=1;exitX=1;exitY=0.5;exitDx=0;exitDy=0;entryX=0;entryY=0.5;entryDx=0;entryDy=0;" edge="1" parent="1" source="CJWO5uIFAEIvbtH7xIn5-14" target="CJWO5uIFAEIvbtH7xIn5-20">
          <mxGeometry relative="1" as="geometry" />
        </mxCell>
        <mxCell id="CJWO5uIFAEIvbtH7xIn5-91" style="edgeStyle=orthogonalEdgeStyle;rounded=0;orthogonalLoop=1;jettySize=auto;html=1;exitX=1;exitY=0.5;exitDx=0;exitDy=0;entryX=0.5;entryY=0;entryDx=0;entryDy=0;" edge="1" parent="1" source="CJWO5uIFAEIvbtH7xIn5-20" target="CJWO5uIFAEIvbtH7xIn5-32">
          <mxGeometry relative="1" as="geometry" />
        </mxCell>
        <mxCell id="CJWO5uIFAEIvbtH7xIn5-92" style="edgeStyle=orthogonalEdgeStyle;rounded=0;orthogonalLoop=1;jettySize=auto;html=1;exitX=1;exitY=0.5;exitDx=0;exitDy=0;entryX=0.5;entryY=0;entryDx=0;entryDy=0;" edge="1" parent="1" source="CJWO5uIFAEIvbtH7xIn5-26" target="CJWO5uIFAEIvbtH7xIn5-32">
          <mxGeometry relative="1" as="geometry" />
        </mxCell>
        <mxCell id="CJWO5uIFAEIvbtH7xIn5-95" style="edgeStyle=orthogonalEdgeStyle;rounded=0;orthogonalLoop=1;jettySize=auto;html=1;exitX=1;exitY=0;exitDx=0;exitDy=0;entryX=0.021;entryY=0.501;entryDx=0;entryDy=0;entryPerimeter=0;" edge="1" parent="1" source="CJWO5uIFAEIvbtH7xIn5-1" target="CJWO5uIFAEIvbtH7xIn5-4">
          <mxGeometry relative="1" as="geometry" />
        </mxCell>
      </root>
    </mxGraphModel>
  </diagram>
</mxfile>
